<svg id="Ebene_1" data-name="Ebene 1" xmlns="http://www.w3.org/2000/svg" viewBox="0 0 1133.86 566.93"><defs><style>.cls-1{fill:#ffed00;}.cls-2{fill:#1d1d1b;}.cls-3{fill:#cd1719;}</style></defs><path class="cls-1" d="M302.83,201.82c-.23.41-.44.84-.64,1.27a18.73,18.73,0,0,1-9.08,8.2l-.38.15h0c-.58.23-1.16.43-1.75.61,0,0,0,0-.08,0l-.21,0-1,.25-.75.14-.81.13-.76.08-.44,0c-.47,0-.94,0-1.42,0h-.34a20.09,20.09,0,0,1-2.69-.27l-.21,0a18.88,18.88,0,0,1-4-36l.66-.25.15-.06c.31-.12.62-.22.94-.32l.29-.1.74-.2.48-.12.32-.06a18.9,18.9,0,0,1,13.58,2.28c.39.28.8.54,1.22.79a18.87,18.87,0,0,0,14.87,2,19.71,19.71,0,0,0,2.19-.78c.23-.1.46-.23.69-.34l-15.89-59.29a17,17,0,0,0-20.83-12l-59.06,15.83a18.8,18.8,0,0,0,9.65,15c.41.23.84.44,1.27.64a18.89,18.89,0,1,1-25.38,6.81c.28-.39.54-.8.79-1.22a18.86,18.86,0,0,0,1.18-17.1c-.11-.24-.23-.46-.34-.69l-59.54,16a17,17,0,0,0-12,20.83l15.88,59.29c-.23.11-.45.24-.69.34a18.86,18.86,0,0,1-17.11-1.18c-.41-.25-.82-.51-1.21-.79a18.9,18.9,0,1,0,6.81,25.38c.2-.43.41-.85.64-1.27a18.8,18.8,0,0,1,15-9.65l15.89,59.3a17,17,0,0,0,20.83,12l59.54-15.95c0-.21,0-.41,0-.62s0-.25-.05-.37-.07-.53-.12-.79-.07-.39-.12-.59-.13-.61-.21-.91-.17-.64-.27-.95-.12-.37-.19-.56-.2-.54-.31-.8-.12-.31-.19-.47c-.18-.42-.38-.84-.59-1.25l-.11-.18c-.2-.36-.4-.72-.62-1.06l-.21-.32c-.25-.39-.52-.77-.8-1.13h0c-.3-.4-.62-.77-1-1.14l-.12-.12a18.93,18.93,0,0,0-4.72-3.7c-.41-.23-.84-.44-1.27-.64a18.89,18.89,0,0,1-6.19-5.53l-.12-.18c-.19-.27-.37-.54-.55-.82s-.29-.48-.43-.73-.16-.26-.23-.4c-.24-.44-.45-.9-.66-1.37,0,0,0,0,0-.05a1.34,1.34,0,0,1-.07-.18A18.89,18.89,0,0,1,263.77,249v0a18.37,18.37,0,0,1,1.41,2.53,1.11,1.11,0,0,1,.07.16c.13.28.25.57.36.86l.18.46.16.46a18.88,18.88,0,0,1-1.71,15.69c-.28.4-.54.81-.79,1.22A19,19,0,0,0,261,283c0,.08,0,.15,0,.22.05.31.11.63.18.94s.11.43.16.65.14.52.22.78.24.74.37,1.1l.09.21c.13.34.28.68.43,1l.12.25,59-15.82a17,17,0,0,0,12-20.83l-15.9-59.31a19.1,19.1,0,0,0-3,.47,20.09,20.09,0,0,0-2.9,1A18.88,18.88,0,0,0,302.83,201.82Z"/><path class="cls-2" d="M320.91,341.85a18.9,18.9,0,0,1,18.77.37c.4.29.8.55,1.22.8A18.85,18.85,0,0,0,358,344.19l.69-.33-16-59.54a17,17,0,0,0-20.83-12l-59.29,15.89,0,0-.12-.25c-.15-.33-.3-.67-.43-1l-.09-.21c-.13-.36-.26-.73-.37-1.1s-.15-.52-.22-.78-.11-.43-.16-.65-.13-.62-.18-.94c0-.07,0-.14,0-.22a19,19,0,0,1,2.47-12.6c.25-.41.51-.82.79-1.22A18.88,18.88,0,0,0,266,253.47c-.06-.15-.11-.31-.16-.46l-.18-.46c-.11-.29-.23-.58-.36-.86a1.11,1.11,0,0,0-.07-.16c-.17-.38-.36-.76-.57-1.13a.59.59,0,0,0,0-.08c-.25-.45-.51-.89-.8-1.32v0c-.28-.42-.58-.83-.89-1.22l-.05-.06a18.89,18.89,0,0,0-33.7,12.16c0,.3,0,.59.07.89,0,.08,0,.15,0,.23,0,.46.09.91.16,1.35l.12.68c0,.24.09.47.15.7.09.4.19.8.31,1.19.05.16.1.32.16.48a13.47,13.47,0,0,0,.49,1.34,1.34,1.34,0,0,0,.07.18s0,0,0,.05c.21.47.43.93.66,1.37.07.14.16.27.23.4s.28.5.43.73.36.55.55.82l.12.18a18.89,18.89,0,0,0,6.19,5.53c.43.2.86.41,1.27.64a18.93,18.93,0,0,1,4.72,3.7l.12.12c.33.37.65.75,1,1.14h0c.28.37.55.75.8,1.13l.21.32c.22.35.42.7.62,1.06l.11.18c.21.41.41.83.59,1.25.07.16.13.31.19.47s.21.53.31.8.13.37.19.56.19.63.27.95.15.61.21.91.09.39.12.59.09.53.12.79,0,.25.05.37.06.44.07.66h0l-59.3,15.89a17,17,0,0,0-12,20.83l15.95,59.54.77-.06a18.85,18.85,0,0,0,14.23-9.57c.24-.42.45-.85.66-1.3a18.91,18.91,0,1,1,6.79,25.39c-.39-.27-.78-.53-1.19-.78a18.79,18.79,0,0,0-17.82-.85l15.83,59.06a17,17,0,0,0,20.83,12l59.29-15.88c.11.23.24.45.34.69A18.86,18.86,0,0,1,293,473.71c-.25.41-.51.82-.79,1.21a18.9,18.9,0,1,0,25.38-6.81c-.43-.2-.86-.41-1.27-.64a18.8,18.8,0,0,1-9.65-15l59.3-15.89a17,17,0,0,0,12-20.83l-15.83-59.06a18.72,18.72,0,0,0-15,9.65c-.23.41-.44.83-.64,1.26a18.87,18.87,0,0,1-34.61-3.77A19,19,0,0,1,320.91,341.85Z"/><path class="cls-3" d="M503.4,116.21a18.81,18.81,0,0,0-9.08,8.2,12.58,12.58,0,0,1-.64,1.27,18.76,18.76,0,0,1-15,9.65L462.79,76A17,17,0,0,0,442,64L382.9,79.82a18.79,18.79,0,0,0,9.65,15c.42.23.84.44,1.27.64A18.88,18.88,0,0,1,390,130.08a18.88,18.88,0,0,1-21.6-27.8c.28-.4.54-.8.79-1.22A18.85,18.85,0,0,0,370.41,84c-.1-.24-.23-.46-.34-.69L310.53,99.21a17,17,0,0,0-12,20.84l15.89,59.29-.7.34a20.4,20.4,0,0,1-2.23.79,18.87,18.87,0,0,1-14.87-2c-.42-.25-.83-.51-1.22-.79a18.9,18.9,0,0,0-13.58-2.28l-.32.06-.48.12-.74.2-.29.1c-.32.1-.63.2-.94.32l-.15.06-.66.25a18.87,18.87,0,0,0,1.48,35.29l.17,0c.32.11.63.2,1,.28l.24.07c.38.1.77.18,1.16.26l.21,0a19.93,19.93,0,0,0,2.69.27h.34c.48,0,.95,0,1.42,0l.44,0,.76-.08.81-.13.75-.14,1-.25.21,0s.05,0,.08,0c.6-.18,1.19-.38,1.75-.61h0l.38-.15c.38-.16.74-.34,1.1-.52l.05,0a18.78,18.78,0,0,0,7.93-7.65c.2-.43.41-.86.64-1.27a18.88,18.88,0,0,1,9.08-8.21,18.88,18.88,0,0,1,5.92-1.44h0l15.89,59.3a17,17,0,0,0,20.83,12l59.54-15.95c0-.26,0-.51,0-.77a18.9,18.9,0,0,0-9.57-14.23c-.43-.24-.86-.46-1.3-.66a18.9,18.9,0,1,1,25.38-6.79c-.27.39-.53.78-.77,1.19a18.76,18.76,0,0,0-.86,17.82L486,228.28a17,17,0,0,0,12-20.83l-15.89-59.29c.23-.11.45-.24.69-.34A18.85,18.85,0,0,1,499.92,149c.42.25.82.51,1.22.79a18.89,18.89,0,1,0,2.26-33.58Z"/><path class="cls-3" d="M443.22,348.33a31.41,31.41,0,0,1-8.55-1.14,23,23,0,0,1-7.22-3.43,17,17,0,0,1-5-5.68,17.59,17.59,0,0,1-2-7.88,1.76,1.76,0,0,1,.47-1.22,1.65,1.65,0,0,1,1.26-.51h10.64a2.4,2.4,0,0,1,1.7.55,4.15,4.15,0,0,1,1,1.66,8.86,8.86,0,0,0,1.54,3.58,6.39,6.39,0,0,0,2.76,2.05,10.24,10.24,0,0,0,3.82.67,7.44,7.44,0,0,0,6.07-2.56c1.42-1.71,2.12-4.22,2.12-7.53V304.12H426.27a2,2,0,0,1-1.38-.55,1.87,1.87,0,0,1-.59-1.42v-7.8a1.87,1.87,0,0,1,.59-1.42,2,2,0,0,1,1.38-.55h38.14a2,2,0,0,1,1.46.55,1.84,1.84,0,0,1,.59,1.42v32.94a21.21,21.21,0,0,1-2.95,11.54,18.55,18.55,0,0,1-8.2,7.09A28.58,28.58,0,0,1,443.22,348.33Z"/><path class="cls-3" d="M499.56,348.33A31,31,0,0,1,487,346a18.28,18.28,0,0,1-8.35-7.13,24.08,24.08,0,0,1-3.31-11.94c-.05-2.25-.08-4.53-.08-6.81s0-4.56.08-6.82a24.09,24.09,0,0,1,3.35-11.94,18.87,18.87,0,0,1,8.43-7.29,33.29,33.29,0,0,1,25,0,19.19,19.19,0,0,1,8.43,7.29,23.37,23.37,0,0,1,3.31,11.94q.17,3.39.16,6.82c0,2.28,0,4.56-.16,6.81a23.37,23.37,0,0,1-3.27,11.94,18.53,18.53,0,0,1-8.39,7.13A31,31,0,0,1,499.56,348.33Zm0-11.35a9.48,9.48,0,0,0,6.82-2.52q2.64-2.52,2.79-8,.16-3.46.16-6.54t-.16-6.38a14.12,14.12,0,0,0-1.38-6,7.86,7.86,0,0,0-3.34-3.43,10.42,10.42,0,0,0-4.89-1.1,10.24,10.24,0,0,0-4.81,1.1,8.07,8.07,0,0,0-3.39,3.43,13.82,13.82,0,0,0-1.41,6c-.06,2.2-.08,4.33-.08,6.38s0,4.23.08,6.54q.23,5.52,2.87,8A9.37,9.37,0,0,0,499.56,337Z"/><path class="cls-3" d="M535.1,347.54a1.87,1.87,0,0,1-1.42-.59,1.93,1.93,0,0,1-.55-1.38V294.35a1.88,1.88,0,0,1,2-2h10.56a2.06,2.06,0,0,1,1.46.55,1.87,1.87,0,0,1,.59,1.42v51.22a1.89,1.89,0,0,1-.59,1.38,2,2,0,0,1-1.46.59Z"/><path class="cls-3" d="M560.63,347.54a1.87,1.87,0,0,1-1.42-.59,1.93,1.93,0,0,1-.55-1.38V294.35a1.88,1.88,0,0,1,2-2H569a2.65,2.65,0,0,1,1.94.59,4,4,0,0,1,.74.9l19.23,30.27V294.35a2,2,0,0,1,.55-1.42,1.91,1.91,0,0,1,1.42-.55h9.46a1.91,1.91,0,0,1,1.42.55,2,2,0,0,1,.55,1.42v51.14a2.08,2.08,0,0,1-.55,1.46,1.87,1.87,0,0,1-1.42.59h-8.43a2.46,2.46,0,0,1-1.86-.63,7.77,7.77,0,0,1-.74-.87l-19.23-29.15v28.68a2,2,0,0,1-.55,1.38,1.89,1.89,0,0,1-1.42.59Z"/><path class="cls-3" d="M629.43,347.54A1.87,1.87,0,0,1,628,347a1.93,1.93,0,0,1-.55-1.38V304.75h-14a1.87,1.87,0,0,1-1.42-.59,2,2,0,0,1-.55-1.38v-8.43a1.88,1.88,0,0,1,2-2h42.4a1.89,1.89,0,0,1,1.41.55,1.92,1.92,0,0,1,.56,1.42v8.43a2,2,0,0,1-.56,1.38,1.85,1.85,0,0,1-1.41.59h-14v40.82a2,2,0,0,1-.55,1.38,1.87,1.87,0,0,1-1.42.59Z"/><path class="cls-3" d="M682,347.54a1.87,1.87,0,0,1-1.42-.59,1.93,1.93,0,0,1-.55-1.38V294.35a1.88,1.88,0,0,1,2-2h36.8a1.91,1.91,0,0,1,1.42.55,2,2,0,0,1,.55,1.42v7.41a1.88,1.88,0,0,1-2,2H693.65v10.64h23.41a1.85,1.85,0,0,1,1.41.59,2.08,2.08,0,0,1,.56,1.46v6.86a2,2,0,0,1-.56,1.38,1.85,1.85,0,0,1-1.41.59H693.65v10.95h25.77a2,2,0,0,1,1.42.55,1.91,1.91,0,0,1,.55,1.42v7.41a1.93,1.93,0,0,1-.55,1.38,1.87,1.87,0,0,1-1.42.59Z"/><path class="cls-3" d="M732.34,347.54a1.87,1.87,0,0,1-1.42-.59,2,2,0,0,1-.55-1.38V294.35a2,2,0,0,1,.55-1.42,1.91,1.91,0,0,1,1.42-.55h36.25a1.88,1.88,0,0,1,2,2v8a1.88,1.88,0,0,1-.55,1.41,1.92,1.92,0,0,1-1.42.56H744.24v11.58H767a1.89,1.89,0,0,1,1.42.59,2.1,2.1,0,0,1,.55,1.46v7.88a2,2,0,0,1-.55,1.38,1.89,1.89,0,0,1-1.42.59H744.24v17.81a1.93,1.93,0,0,1-.55,1.38,1.87,1.87,0,0,1-1.42.59Z"/><path class="cls-3" d="M781,347.54a1.85,1.85,0,0,1-1.41-.59,1.94,1.94,0,0,1-.56-1.38V294.35a1.92,1.92,0,0,1,.56-1.42,1.89,1.89,0,0,1,1.41-.55h36.25a1.88,1.88,0,0,1,2,2v8a1.88,1.88,0,0,1-.55,1.41,1.92,1.92,0,0,1-1.42.56H792.94v11.58h22.78a1.87,1.87,0,0,1,1.42.59,2.1,2.1,0,0,1,.55,1.46v7.88a2,2,0,0,1-.55,1.38,1.87,1.87,0,0,1-1.42.59H792.94v17.81a1.93,1.93,0,0,1-.55,1.38,1.87,1.87,0,0,1-1.42.59Z"/><path class="cls-3" d="M849.92,348.33A30.94,30.94,0,0,1,837.31,346a18.28,18.28,0,0,1-8.35-7.13,24.08,24.08,0,0,1-3.31-11.94c-.06-2.25-.08-4.53-.08-6.81s0-4.56.08-6.82A24.09,24.09,0,0,1,829,301.32a18.87,18.87,0,0,1,8.43-7.29,33.29,33.29,0,0,1,25,0,19.19,19.19,0,0,1,8.43,7.29,23.37,23.37,0,0,1,3.31,11.94c.1,2.26.16,4.53.16,6.82s-.06,4.56-.16,6.81a23.37,23.37,0,0,1-3.27,11.94,18.53,18.53,0,0,1-8.39,7.13A31,31,0,0,1,849.92,348.33Zm0-11.35a9.46,9.46,0,0,0,6.81-2.52c1.76-1.68,2.7-4.36,2.8-8q.16-3.46.16-6.54t-.16-6.38a14.12,14.12,0,0,0-1.38-6A7.83,7.83,0,0,0,854.8,304a10.36,10.36,0,0,0-4.88-1.1,10.24,10.24,0,0,0-4.81,1.1,8.07,8.07,0,0,0-3.39,3.43,14,14,0,0,0-1.42,6q-.07,3.3-.07,6.38t.07,6.54q.24,5.52,2.88,8A9.37,9.37,0,0,0,849.92,337Z"/><path class="cls-3" d="M885.46,347.54A1.87,1.87,0,0,1,884,347a1.93,1.93,0,0,1-.55-1.38V294.35a1.88,1.88,0,0,1,2-2h21.43q10.25,0,16.08,4.69t5.83,13.27a16.13,16.13,0,0,1-2.68,9.46,16.73,16.73,0,0,1-7.09,5.83L929.82,345a1.91,1.91,0,0,1,.24.87,1.75,1.75,0,0,1-1.65,1.65H917.93a2.91,2.91,0,0,1-2.21-.75,6.13,6.13,0,0,1-1-1.38l-9-17.33h-8v17.49a1.85,1.85,0,0,1-.59,1.38,2,2,0,0,1-1.46.59Zm12.21-30.65h9.07a7.63,7.63,0,0,0,5.55-1.82,6.53,6.53,0,0,0,1.85-4.88,7,7,0,0,0-1.77-5q-1.77-1.89-5.63-1.89h-9.07Z"/><path class="cls-3" d="M951.57,347.54a1.85,1.85,0,0,1-1.41-.59,1.94,1.94,0,0,1-.56-1.38V304.75h-14a1.87,1.87,0,0,1-1.42-.59,2,2,0,0,1-.55-1.38v-8.43a1.88,1.88,0,0,1,2-2H978a1.88,1.88,0,0,1,2,2v8.43a2,2,0,0,1-.55,1.38,1.87,1.87,0,0,1-1.42.59H964v40.82a1.94,1.94,0,0,1-.56,1.38,1.85,1.85,0,0,1-1.41.59Z"/><path class="cls-3" d="M1007.6,348.33a33.09,33.09,0,0,1-13.08-2.25,18.74,18.74,0,0,1-7.88-5.87,13.75,13.75,0,0,1-2.84-7.72,1.55,1.55,0,0,1,.52-1.14,1.64,1.64,0,0,1,1.22-.52h9.93a3.06,3.06,0,0,1,1.69.4,4.29,4.29,0,0,1,1.07,1,9.36,9.36,0,0,0,1.77,2.29,8.37,8.37,0,0,0,3,1.77,13.68,13.68,0,0,0,4.57.67q4.57,0,6.9-1.42a4.33,4.33,0,0,0,2.32-3.86,3.7,3.7,0,0,0-1.26-2.92,11.81,11.81,0,0,0-4.06-2,68.76,68.76,0,0,0-7.44-1.86,45.6,45.6,0,0,1-10.21-3.27,15.61,15.61,0,0,1-6.42-5.28,15.48,15.48,0,0,1,.51-16.74,17.83,17.83,0,0,1,7.61-5.91,28.78,28.78,0,0,1,11.58-2.13,29.4,29.4,0,0,1,9.58,1.42,21.69,21.69,0,0,1,7,3.78,18,18,0,0,1,4.29,5,11.31,11.31,0,0,1,1.54,5.17,1.71,1.71,0,0,1-.43,1.14,1.52,1.52,0,0,1-1.22.51h-10.41a3.31,3.31,0,0,1-1.49-.31,3,3,0,0,1-1.11-1,5.36,5.36,0,0,0-2.48-3,9.48,9.48,0,0,0-5.24-1.3,10,10,0,0,0-5.4,1.22,4.11,4.11,0,0,0-1.93,3.74,4,4,0,0,0,1.07,2.76,8.46,8.46,0,0,0,3.54,2,61.15,61.15,0,0,0,6.82,1.81,51.5,51.5,0,0,1,11.58,3.35,14.81,14.81,0,0,1,6.5,5.2,15.81,15.81,0,0,1-1,17.22,19.64,19.64,0,0,1-8.39,5.95A33.69,33.69,0,0,1,1007.6,348.33Z"/><path class="cls-3" d="M434.7,405a17.44,17.44,0,0,1-7.32-1.41,10.61,10.61,0,0,1-4.74-4.12,13.5,13.5,0,0,1-1.86-6.6c0-1.29,0-2.65,0-4.1s0-2.83,0-4.14a12.76,12.76,0,0,1,1.88-6.45,10.81,10.81,0,0,1,4.79-4,17.66,17.66,0,0,1,7.25-1.38,19.74,19.74,0,0,1,6,.82,13.85,13.85,0,0,1,4.36,2.22,10.64,10.64,0,0,1,2.71,3,7,7,0,0,1,1,3.27.84.84,0,0,1-.29.67,1,1,0,0,1-.69.27h-6.54a1.46,1.46,0,0,1-.74-.15,1.39,1.39,0,0,1-.42-.47,6.88,6.88,0,0,0-.92-1.41,4.92,4.92,0,0,0-1.66-1.28,6,6,0,0,0-2.75-.54,5.66,5.66,0,0,0-4,1.35,5.85,5.85,0,0,0-1.61,4.29q-.14,3.85,0,7.79a6.25,6.25,0,0,0,1.65,4.53,5.84,5.84,0,0,0,4.08,1.38,7.25,7.25,0,0,0,3-.58,4.52,4.52,0,0,0,2.08-1.81,5.89,5.89,0,0,0,.77-3.16v-.85h-4.21a1.07,1.07,0,0,1-.81-.33,1.17,1.17,0,0,1-.31-.83v-3.32a1.15,1.15,0,0,1,.31-.82,1,1,0,0,1,.81-.34h11.28a1,1,0,0,1,.81.34,1.19,1.19,0,0,1,.31.82v5.11a11.9,11.9,0,0,1-1.75,6.58,11.2,11.2,0,0,1-4.94,4.19A17.89,17.89,0,0,1,434.7,405Z"/><path class="cls-3" d="M464.25,405a12,12,0,0,1-8.42-2.86q-3.13-2.87-3.27-8.51V392a12.94,12.94,0,0,1,1.59-6.06,9.73,9.73,0,0,1,4-3.86,13.06,13.06,0,0,1,6-1.32,12.42,12.42,0,0,1,6.52,1.57,9.92,9.92,0,0,1,3.87,4.25,13.91,13.91,0,0,1,1.3,6.14v1.07a1.06,1.06,0,0,1-1.12,1.12H460.44v.31a7.2,7.2,0,0,0,.47,2.38,4,4,0,0,0,1.26,1.7,3.25,3.25,0,0,0,2,.63,3.34,3.34,0,0,0,1.5-.3,3.62,3.62,0,0,0,1-.67,7.21,7.21,0,0,0,.63-.65,2.18,2.18,0,0,1,.65-.6,2.08,2.08,0,0,1,.78-.11h5.55a1,1,0,0,1,.74.27.78.78,0,0,1,.25.71,4,4,0,0,1-.76,1.84,9.37,9.37,0,0,1-2.08,2.12A11.36,11.36,0,0,1,469,404.3,15.39,15.39,0,0,1,464.25,405Zm-3.81-14.46H468v-.09a6.8,6.8,0,0,0-.42-2.53,3.48,3.48,0,0,0-1.3-1.63,3.69,3.69,0,0,0-2.09-.59,3.48,3.48,0,0,0-2,.59,3.6,3.6,0,0,0-1.3,1.63,6.4,6.4,0,0,0-.45,2.53Z"/><path class="cls-3" d="M481.22,404.52a1.07,1.07,0,0,1-.81-.33,1.13,1.13,0,0,1-.31-.79v-21a1.05,1.05,0,0,1,.31-.8,1.1,1.1,0,0,1,.81-.32h4.88a1.08,1.08,0,0,1,.8.32,1.06,1.06,0,0,1,.32.8v1.52a8,8,0,0,1,6.31-3.09c3.46-.09,5.83,1.2,7.12,3.85a7.83,7.83,0,0,1,2.93-2.77,8.72,8.72,0,0,1,8.37,0,7.54,7.54,0,0,1,3,3.22,12.21,12.21,0,0,1,1.12,5.62V403.4a1.17,1.17,0,0,1-.31.79,1.07,1.07,0,0,1-.81.33h-5.19a1.13,1.13,0,0,1-.83-.33,1.12,1.12,0,0,1-.34-.79V391a5.86,5.86,0,0,0-.44-2.48,2.9,2.9,0,0,0-1.21-1.32,3.68,3.68,0,0,0-1.75-.41,3.42,3.42,0,0,0-1.59.41,2.92,2.92,0,0,0-1.25,1.32,5.4,5.4,0,0,0-.47,2.48v12.4a1.14,1.14,0,0,1-.32.79,1,1,0,0,1-.8.33h-5.2a1.06,1.06,0,0,1-.8-.33,1.13,1.13,0,0,1-.31-.79V391a5.24,5.24,0,0,0-.5-2.48,3.08,3.08,0,0,0-1.25-1.32,3.5,3.5,0,0,0-3.29,0,3,3,0,0,0-1.26,1.32,5.4,5.4,0,0,0-.47,2.44V403.4a1.11,1.11,0,0,1-.33.79,1.08,1.08,0,0,1-.78.33Z"/><path class="cls-3" d="M531.85,405a12,12,0,0,1-8.41-2.86q-3.13-2.87-3.27-8.51V392a12.94,12.94,0,0,1,1.59-6.06,9.67,9.67,0,0,1,4-3.86,13,13,0,0,1,6-1.32,12.38,12.38,0,0,1,6.51,1.57,10,10,0,0,1,3.88,4.25,14.05,14.05,0,0,1,1.29,6.14v1.07a1.06,1.06,0,0,1-1.12,1.12H528.05v.31a7,7,0,0,0,.47,2.38,3.88,3.88,0,0,0,1.25,1.7,3.26,3.26,0,0,0,2,.63,3.37,3.37,0,0,0,1.5-.3,3.78,3.78,0,0,0,1-.67,8.51,8.51,0,0,0,.62-.65,2.31,2.31,0,0,1,.65-.6,2.15,2.15,0,0,1,.78-.11h5.56a1.07,1.07,0,0,1,.74.27.8.8,0,0,1,.24.71,3.93,3.93,0,0,1-.76,1.84,9.37,9.37,0,0,1-2.08,2.12,11.13,11.13,0,0,1-3.43,1.73A15.39,15.39,0,0,1,531.85,405Zm-3.8-14.46h7.56v-.09a6.8,6.8,0,0,0-.42-2.53,3.48,3.48,0,0,0-1.3-1.63,3.66,3.66,0,0,0-2.08-.59,3.49,3.49,0,0,0-2,.59,3.58,3.58,0,0,0-1.29,1.63,6.4,6.4,0,0,0-.45,2.53Z"/><path class="cls-3" d="M548.78,377.88a1.06,1.06,0,0,1-1.12-1.12v-4A1.13,1.13,0,0,1,548,372a1.07,1.07,0,0,1,.81-.33h5.37a1.14,1.14,0,0,1,1.12,1.12v4a1,1,0,0,1-.34.81,1.09,1.09,0,0,1-.78.31Zm0,26.64a1,1,0,0,1-.8-.33,1.14,1.14,0,0,1-.32-.79v-21a1.09,1.09,0,0,1,1.12-1.12h5.28a1.1,1.1,0,0,1,.81.32,1.05,1.05,0,0,1,.31.8v21a1.13,1.13,0,0,1-.31.79,1.07,1.07,0,0,1-.81.33Z"/><path class="cls-3" d="M561.63,404.52a1.07,1.07,0,0,1-.81-.33,1.13,1.13,0,0,1-.31-.79v-21a1.05,1.05,0,0,1,.31-.8,1.1,1.1,0,0,1,.81-.32h5.14a1.16,1.16,0,0,1,.83.32,1,1,0,0,1,.34.8v1.7a8.86,8.86,0,0,1,3-2.33,9.87,9.87,0,0,1,4.43-.94A8.9,8.9,0,0,1,580,382a8,8,0,0,1,3.13,3.4,12.13,12.13,0,0,1,1.15,5.55V403.4a1.14,1.14,0,0,1-.32.79,1.06,1.06,0,0,1-.8.33h-5.65a1.08,1.08,0,0,1-.78-.33,1.11,1.11,0,0,1-.33-.79V391.18a4.79,4.79,0,0,0-1-3.25,3.77,3.77,0,0,0-3-1.14,3.88,3.88,0,0,0-2.93,1.14,4.53,4.53,0,0,0-1.1,3.25V403.4a1.13,1.13,0,0,1-1.12,1.12Z"/><path class="cls-3" d="M598.87,405a16.48,16.48,0,0,1-4.94-.65,11.41,11.41,0,0,1-3.32-1.59,7.09,7.09,0,0,1-1.9-2A3.89,3.89,0,0,1,588,399a.9.9,0,0,1,.31-.81,1.15,1.15,0,0,1,.76-.31h5.11a.61.61,0,0,1,.24,0,.74.74,0,0,1,.25.18,7.93,7.93,0,0,1,1.17.78,6.09,6.09,0,0,0,1.34.83,4.27,4.27,0,0,0,1.83.36,4,4,0,0,0,2.11-.51,1.64,1.64,0,0,0,.85-1.46,1.82,1.82,0,0,0-.4-1.19A4,4,0,0,0,600,396a24.17,24.17,0,0,0-3.69-.9,18.72,18.72,0,0,1-4.08-1.41,6.72,6.72,0,0,1-2.68-2.28,6.17,6.17,0,0,1,.22-6.88,8.44,8.44,0,0,1,3.4-2.7,13.1,13.1,0,0,1,5.56-1.06,15,15,0,0,1,4.47.61,11.28,11.28,0,0,1,3.23,1.54,8.24,8.24,0,0,1,2,1.93,3.7,3.7,0,0,1,.71,1.79,1,1,0,0,1-.27.78.93.93,0,0,1-.71.34h-4.66a.92.92,0,0,1-.36-.07,1.29,1.29,0,0,1-.31-.16,4.84,4.84,0,0,1-1.07-.71,6.5,6.5,0,0,0-1.26-.81,4,4,0,0,0-1.79-.36,2.94,2.94,0,0,0-1.88.54,1.74,1.74,0,0,0-.29,2.46,3.36,3.36,0,0,0,1.57.9,29.59,29.59,0,0,0,3.69.89,14.07,14.07,0,0,1,4.93,1.59,6.9,6.9,0,0,1,2.61,2.56,6.29,6.29,0,0,1,.79,3.06,6,6,0,0,1-1.3,3.81,8.38,8.38,0,0,1-3.78,2.57A17.85,17.85,0,0,1,598.87,405Z"/><path class="cls-3" d="M621,405a9.79,9.79,0,0,1-4.32-.92,7.84,7.84,0,0,1-3-2.48,6,6,0,0,1-1.12-3.54,5.89,5.89,0,0,1,2.6-5,16.11,16.11,0,0,1,6.9-2.53l5.59-.85V389a3.91,3.91,0,0,0-.67-2.47,3,3,0,0,0-2.46-.85,3.76,3.76,0,0,0-2,.5,3.46,3.46,0,0,0-1.23,1.34,1.28,1.28,0,0,1-1.12.58h-5a1,1,0,0,1-.76-.29.83.83,0,0,1-.23-.69,3.78,3.78,0,0,1,.61-1.86,7.74,7.74,0,0,1,1.85-2.08,10,10,0,0,1,3.23-1.7,14.85,14.85,0,0,1,4.79-.68,15.84,15.84,0,0,1,4.92.68,8.72,8.72,0,0,1,3.36,1.88,7.16,7.16,0,0,1,1.9,2.84,10.15,10.15,0,0,1,.61,3.6V403.4a1.14,1.14,0,0,1-1.12,1.12h-5.2a1.06,1.06,0,0,1-.8-.33,1.13,1.13,0,0,1-.31-.79v-1.56a6.64,6.64,0,0,1-1.57,1.56,8.32,8.32,0,0,1-2.31,1.15A10.11,10.11,0,0,1,621,405Zm2.1-5.1a4.94,4.94,0,0,0,2.35-.56,4,4,0,0,0,1.66-1.75,6.56,6.56,0,0,0,.6-3V394l-3.8.67a7,7,0,0,0-3.07,1.1,2.13,2.13,0,0,0-1,1.72,2,2,0,0,0,.44,1.3,3,3,0,0,0,1.19.83A4.36,4.36,0,0,0,623.14,399.87Z"/><path class="cls-3" d="M641.59,404.52a1.07,1.07,0,0,1-.81-.33,1.13,1.13,0,0,1-.31-.79v-21a1.05,1.05,0,0,1,.31-.8,1.1,1.1,0,0,1,.81-.32h4.88a1.09,1.09,0,0,1,.8.32,1.06,1.06,0,0,1,.32.8v1.52a8,8,0,0,1,6.31-3.09c3.46-.09,5.83,1.2,7.12,3.85a7.83,7.83,0,0,1,2.93-2.77,8.72,8.72,0,0,1,8.37,0,7.54,7.54,0,0,1,3,3.22,12.34,12.34,0,0,1,1.12,5.62V403.4a1.14,1.14,0,0,1-.32.79,1,1,0,0,1-.8.33h-5.2a1.12,1.12,0,0,1-.82-.33,1.08,1.08,0,0,1-.34-.79V391a5.7,5.7,0,0,0-.45-2.48,2.85,2.85,0,0,0-1.21-1.32,3.64,3.64,0,0,0-1.74-.41,3.42,3.42,0,0,0-1.59.41,2.92,2.92,0,0,0-1.25,1.32,5.4,5.4,0,0,0-.47,2.48v12.4a1.14,1.14,0,0,1-.32.79,1.06,1.06,0,0,1-.8.33h-5.2a1,1,0,0,1-.8-.33,1.14,1.14,0,0,1-.32-.79V391a5.25,5.25,0,0,0-.49-2.48,3.14,3.14,0,0,0-1.25-1.32,3.5,3.5,0,0,0-3.29,0,2.94,2.94,0,0,0-1.26,1.32A5.4,5.4,0,0,0,648,391V403.4a1.13,1.13,0,0,1-1.12,1.12Z"/><path class="cls-3" d="M692.13,404.52a1,1,0,0,1-.8-.33,1.14,1.14,0,0,1-.32-.79v-21a1.09,1.09,0,0,1,1.12-1.12H697a1.1,1.1,0,0,1,.81.32,1.05,1.05,0,0,1,.31.8v1.52a8.05,8.05,0,0,1,6.31-3.09c3.47-.09,5.84,1.2,7.12,3.85a8,8,0,0,1,2.93-2.77,8.74,8.74,0,0,1,8.38,0,7.46,7.46,0,0,1,3,3.22,12.21,12.21,0,0,1,1.12,5.62V403.4a1.13,1.13,0,0,1-.31.79,1.07,1.07,0,0,1-.81.33h-5.19a1.15,1.15,0,0,1-.83-.33,1.11,1.11,0,0,1-.33-.79V391a5.7,5.7,0,0,0-.45-2.48,2.85,2.85,0,0,0-1.21-1.32,3.68,3.68,0,0,0-1.75-.41,3.48,3.48,0,0,0-1.59.41,2.92,2.92,0,0,0-1.25,1.32,5.53,5.53,0,0,0-.47,2.48v12.4a1.13,1.13,0,0,1-.31.79,1.07,1.07,0,0,1-.81.33h-5.19a1.07,1.07,0,0,1-.81-.33,1.13,1.13,0,0,1-.31-.79V391a5.38,5.38,0,0,0-.49-2.48,3.1,3.1,0,0,0-1.26-1.32,3.45,3.45,0,0,0-1.65-.41,3.53,3.53,0,0,0-1.64.41,2.92,2.92,0,0,0-1.25,1.32,5.4,5.4,0,0,0-.47,2.44V403.4a1.14,1.14,0,0,1-1.12,1.12Z"/><path class="cls-3" d="M733.1,377.88a1.06,1.06,0,0,1-1.12-1.12v-4a1.13,1.13,0,0,1,.31-.79,1.07,1.07,0,0,1,.81-.33h5.37a1.14,1.14,0,0,1,1.12,1.12v4a1,1,0,0,1-.34.81,1.09,1.09,0,0,1-.78.31Zm0,26.64a1,1,0,0,1-.8-.33,1.14,1.14,0,0,1-.32-.79v-21a1.09,1.09,0,0,1,1.12-1.12h5.28a1.1,1.1,0,0,1,.81.32,1.05,1.05,0,0,1,.31.8v21a1.13,1.13,0,0,1-.31.79,1.07,1.07,0,0,1-.81.33Z"/><path class="cls-3" d="M756.74,404.52a12.05,12.05,0,0,1-5-.92,6.66,6.66,0,0,1-3.2-2.86,10,10,0,0,1-1.12-5v-8.59H744a1.16,1.16,0,0,1-.83-.32,1,1,0,0,1-.34-.8v-3.63a1,1,0,0,1,.34-.8,1.16,1.16,0,0,1,.83-.32h3.49v-7.39a1.06,1.06,0,0,1,.33-.8,1.13,1.13,0,0,1,.79-.31h5.19a1.09,1.09,0,0,1,.81.31,1.13,1.13,0,0,1,.31.8v7.39h5.6a1.16,1.16,0,0,1,.82.32,1,1,0,0,1,.34.8V386a1,1,0,0,1-.34.8,1.16,1.16,0,0,1-.82.32h-5.6v8a4.34,4.34,0,0,0,.58,2.41,2.17,2.17,0,0,0,2,.9h3.45a1.05,1.05,0,0,1,.8.31,1.1,1.1,0,0,1,.32.81v3.89a1.14,1.14,0,0,1-.32.79,1,1,0,0,1-.8.33Z"/><path class="cls-3" d="M788.93,405a17.61,17.61,0,0,1-7.1-1.32,10,10,0,0,1-4.68-4.07,13.5,13.5,0,0,1-1.66-7V374.3a1.09,1.09,0,0,1,1.12-1.12h5.78a1.18,1.18,0,0,1,.83.32,1,1,0,0,1,.33.8v18.22a6.13,6.13,0,0,0,1.39,4.37,6.05,6.05,0,0,0,7.86,0,6,6,0,0,0,1.41-4.37V374.3a1,1,0,0,1,.33-.8,1.14,1.14,0,0,1,.79-.32h5.82a1.1,1.1,0,0,1,.78.32,1,1,0,0,1,.34.8v18.27a13.5,13.5,0,0,1-1.66,7,10,10,0,0,1-4.66,4.07A17.31,17.31,0,0,1,788.93,405Z"/><path class="cls-3" d="M819.15,414.37a15.77,15.77,0,0,1-5.71-.89,11.18,11.18,0,0,1-3.58-2.15,8.56,8.56,0,0,1-1.91-2.49,5.74,5.74,0,0,1-.62-1.94,1,1,0,0,1,.31-.83,1.18,1.18,0,0,1,.85-.34h5.69a1.08,1.08,0,0,1,.71.23,1.55,1.55,0,0,1,.45.71,10.36,10.36,0,0,0,.63,1,2.88,2.88,0,0,0,1,.87,4.17,4.17,0,0,0,1.9.36,5.11,5.11,0,0,0,2.24-.43,2.73,2.73,0,0,0,1.34-1.38,6.19,6.19,0,0,0,.45-2.58v-3a7.75,7.75,0,0,1-2.64,1.82,9.86,9.86,0,0,1-3.9.69,11.16,11.16,0,0,1-4-.67,7.24,7.24,0,0,1-2.91-2,9.6,9.6,0,0,1-1.81-3.26,16.86,16.86,0,0,1-.78-4.44q0-1.15,0-2.37a17.22,17.22,0,0,1,.76-4.32,9.36,9.36,0,0,1,1.81-3.31,8,8,0,0,1,2.93-2.11,10.35,10.35,0,0,1,4-.74,8.74,8.74,0,0,1,4.15.92A9.13,9.13,0,0,1,823.4,384v-1.66a1.09,1.09,0,0,1,.31-.78,1,1,0,0,1,.81-.34h5.15a1.09,1.09,0,0,1,.82.34,1,1,0,0,1,.34.78V403.9a11.2,11.2,0,0,1-1.36,5.73,8.72,8.72,0,0,1-4,3.53A15,15,0,0,1,819.15,414.37Zm-.32-16.16a4,4,0,0,0,2.33-.63,3.64,3.64,0,0,0,1.32-1.61,5.9,5.9,0,0,0,.47-2.1c0-.33,0-.79,0-1.39s0-1,0-1.34a6,6,0,0,0-.47-2.15,3.53,3.53,0,0,0-1.32-1.59,4.11,4.11,0,0,0-2.33-.61,3.94,3.94,0,0,0-2.35.63,3.47,3.47,0,0,0-1.25,1.7,8.74,8.74,0,0,0-.47,2.37c0,.66,0,1.33,0,2a8.59,8.59,0,0,0,.47,2.37,3.38,3.38,0,0,0,1.25,1.7A3.94,3.94,0,0,0,818.83,398.21Z"/><path class="cls-3" d="M843.1,405a9.86,9.86,0,0,1-4.32-.92,7.73,7.73,0,0,1-3-2.48,5.94,5.94,0,0,1-1.12-3.54,5.88,5.88,0,0,1,2.59-5,16.11,16.11,0,0,1,6.9-2.53l5.59-.85V389a3.91,3.91,0,0,0-.67-2.47,3,3,0,0,0-2.46-.85,3.76,3.76,0,0,0-2,.5,3.46,3.46,0,0,0-1.23,1.34,1.28,1.28,0,0,1-1.12.58h-5a1,1,0,0,1-.76-.29.83.83,0,0,1-.23-.69,3.78,3.78,0,0,1,.61-1.86,7.63,7.63,0,0,1,1.86-2.08,10,10,0,0,1,3.22-1.7,14.85,14.85,0,0,1,4.79-.68,15.84,15.84,0,0,1,4.92.68,8.65,8.65,0,0,1,3.36,1.88,7.16,7.16,0,0,1,1.9,2.84,10.15,10.15,0,0,1,.61,3.6V403.4a1.14,1.14,0,0,1-1.12,1.12h-5.19a1.07,1.07,0,0,1-.81-.33,1.13,1.13,0,0,1-.31-.79v-1.56a6.46,6.46,0,0,1-1.57,1.56,8.32,8.32,0,0,1-2.31,1.15A10.11,10.11,0,0,1,843.1,405Zm2.1-5.1a4.94,4.94,0,0,0,2.35-.56,4,4,0,0,0,1.66-1.75,6.56,6.56,0,0,0,.6-3V394l-3.8.67a7,7,0,0,0-3.07,1.1,2.13,2.13,0,0,0-1,1.72,2,2,0,0,0,.45,1.3,2.86,2.86,0,0,0,1.18.83A4.36,4.36,0,0,0,845.2,399.87Z"/><path class="cls-3" d="M863.65,404.52a1.07,1.07,0,0,1-.81-.33,1.13,1.13,0,0,1-.31-.79v-21a1.05,1.05,0,0,1,.31-.8,1.1,1.1,0,0,1,.81-.32h5.15a1.16,1.16,0,0,1,.82.32,1,1,0,0,1,.34.8v1.7a9.06,9.06,0,0,1,3-2.33,9.87,9.87,0,0,1,4.43-.94A8.9,8.9,0,0,1,882,382a8.1,8.1,0,0,1,3.14,3.4,12.14,12.14,0,0,1,1.14,5.55V403.4a1.14,1.14,0,0,1-.32.79,1,1,0,0,1-.8.33H879.5a1.13,1.13,0,0,1-1.12-1.12V391.18a4.79,4.79,0,0,0-1-3.25,3.76,3.76,0,0,0-3-1.14,3.88,3.88,0,0,0-2.93,1.14,4.53,4.53,0,0,0-1.1,3.25V403.4a1.13,1.13,0,0,1-1.12,1.12Z"/><path class="cls-3" d="M900,405a10.34,10.34,0,0,1-3.87-.69,8,8,0,0,1-3-2.06,9.56,9.56,0,0,1-1.9-3.32,15.19,15.19,0,0,1-.76-4.45c0-.6,0-1.13,0-1.59s0-1,0-1.59a14.89,14.89,0,0,1,.76-4.32,9.8,9.8,0,0,1,1.88-3.31,8.21,8.21,0,0,1,3-2.11,9.92,9.92,0,0,1,3.89-.74,9.21,9.21,0,0,1,3.85.74,8.79,8.79,0,0,1,2.73,1.91v-9.59a1.09,1.09,0,0,1,.32-.8,1.05,1.05,0,0,1,.8-.31h5.46a1.13,1.13,0,0,1,.79.31,1.06,1.06,0,0,1,.33.8V403.4a1.13,1.13,0,0,1-1.12,1.12H908.1a1.06,1.06,0,0,1-.8-.33,1.13,1.13,0,0,1-.31-.79V402a8.52,8.52,0,0,1-2.78,2.15A9.34,9.34,0,0,1,900,405Zm2.46-6a3.61,3.61,0,0,0,3.65-2.33,6.26,6.26,0,0,0,.47-2.24c0-.59,0-1.16,0-1.7s0-1.09,0-1.65a5.43,5.43,0,0,0-.49-2.09,3.82,3.82,0,0,0-1.34-1.56,4,4,0,0,0-2.29-.61,4,4,0,0,0-2.35.63,3.47,3.47,0,0,0-1.25,1.7,9.14,9.14,0,0,0-.47,2.37,14.35,14.35,0,0,0,0,2.78,9,9,0,0,0,.47,2.37,3.38,3.38,0,0,0,1.25,1.7A4,4,0,0,0,902.46,399Z"/><path class="cls-3" d="M926.55,405a9.86,9.86,0,0,1-4.32-.92,7.73,7.73,0,0,1-3-2.48,5.94,5.94,0,0,1-1.12-3.54,5.86,5.86,0,0,1,2.6-5,16.12,16.12,0,0,1,6.89-2.53l5.6-.85V389a3.91,3.91,0,0,0-.68-2.47,3,3,0,0,0-2.46-.85,3.74,3.74,0,0,0-2,.5,3.41,3.41,0,0,0-1.24,1.34,1.26,1.26,0,0,1-1.11.58h-5a1,1,0,0,1-.76-.29.82.82,0,0,1-.22-.69,3.86,3.86,0,0,1,.6-1.86,7.63,7.63,0,0,1,1.86-2.08,10,10,0,0,1,3.22-1.7,14.85,14.85,0,0,1,4.79-.68,16,16,0,0,1,4.93.68,8.68,8.68,0,0,1,3.35,1.88,7.29,7.29,0,0,1,1.91,2.84,10.38,10.38,0,0,1,.6,3.6V403.4a1.13,1.13,0,0,1-1.12,1.12h-5.19a1.07,1.07,0,0,1-.81-.33,1.13,1.13,0,0,1-.31-.79v-1.56a6.46,6.46,0,0,1-1.57,1.56,8.12,8.12,0,0,1-2.3,1.15A10.17,10.17,0,0,1,926.55,405Zm2.1-5.1a4.94,4.94,0,0,0,2.35-.56,3.92,3.92,0,0,0,1.66-1.75,6.55,6.55,0,0,0,.61-3V394l-3.81.67a7.08,7.08,0,0,0-3.07,1.1,2.13,2.13,0,0,0-1,1.72,2,2,0,0,0,.45,1.3,2.9,2.9,0,0,0,1.19.83A4.35,4.35,0,0,0,928.65,399.87Z"/><path class="cls-3" d="M966.26,405a12,12,0,0,1-8.42-2.86q-3.12-2.87-3.26-8.51V392a12.94,12.94,0,0,1,1.59-6.06,9.67,9.67,0,0,1,4-3.86,13,13,0,0,1,6-1.32,12.4,12.4,0,0,1,6.51,1.57,9.92,9.92,0,0,1,3.87,4.25,13.91,13.91,0,0,1,1.3,6.14v1.07a1.06,1.06,0,0,1-1.12,1.12H962.46v.31a7,7,0,0,0,.47,2.38,3.88,3.88,0,0,0,1.25,1.7,3.26,3.26,0,0,0,2,.63,3.4,3.4,0,0,0,1.5-.3,3.57,3.57,0,0,0,1-.67,7.21,7.21,0,0,0,.63-.65,2.31,2.31,0,0,1,.65-.6,2.11,2.11,0,0,1,.78-.11h5.56a1,1,0,0,1,.73.27.78.78,0,0,1,.25.71,3.93,3.93,0,0,1-.76,1.84,9.37,9.37,0,0,1-2.08,2.12,11.24,11.24,0,0,1-3.43,1.73A15.39,15.39,0,0,1,966.26,405Zm-3.8-14.46H970v-.09a6.8,6.8,0,0,0-.42-2.53,3.48,3.48,0,0,0-1.3-1.63,3.66,3.66,0,0,0-2.08-.59,3.49,3.49,0,0,0-2,.59,3.67,3.67,0,0,0-1.3,1.63,6.4,6.4,0,0,0-.44,2.53Z"/><path class="cls-3" d="M983,404.52a1.07,1.07,0,0,1-.81-.33,1.13,1.13,0,0,1-.31-.79v-5.68A1.06,1.06,0,0,1,983,396.6h5.68a1.13,1.13,0,0,1,.79.31,1.07,1.07,0,0,1,.33.81v5.68a1.13,1.13,0,0,1-1.12,1.12Z"/><path class="cls-3" d="M1001.63,404.52a1.73,1.73,0,0,1-1.21-.4,2.07,2.07,0,0,1-.62-.94l-9.14-28.65a1.13,1.13,0,0,1-.09-.41.92.92,0,0,1,.29-.65,1,1,0,0,1,.7-.29h5.55a1.51,1.51,0,0,1,1.12.41,1.66,1.66,0,0,1,.49.76l6.36,20.68,6.31-20.68a2.2,2.2,0,0,1,.52-.76,1.41,1.41,0,0,1,1.09-.41h5.6a1,1,0,0,1,.94.94,1.13,1.13,0,0,1-.09.41l-9.13,28.65a1.86,1.86,0,0,1-.59.94,1.77,1.77,0,0,1-1.25.4Z"/><path class="cls-3" d="M1021.46,404.52a1.06,1.06,0,0,1-.8-.33,1.14,1.14,0,0,1-.32-.79v-5.68a1.1,1.1,0,0,1,.32-.81,1.09,1.09,0,0,1,.8-.31h5.69a1.09,1.09,0,0,1,.78.31,1,1,0,0,1,.34.81v5.68a1.14,1.14,0,0,1-1.12,1.12Z"/></svg>